<svg id="Layer_1" data-name="Layer 1" xmlns="http://www.w3.org/2000/svg" viewBox="0 0 2541.18 622.59"><defs><style>.cls-1{font-size:341.19px;fill:#212455;font-family:Harabara;letter-spacing:0.05em;}.cls-2,.cls-3{fill:#ecae20;}.cls-2{letter-spacing:0.05em;}</style></defs><text class="cls-1" transform="translate(513.88 399.02)">Wine<tspan class="cls-2" x="755.94" y="0">shopee</tspan></text><path class="cls-3" d="M190.76,395.83H224.5l.56-1.26a19,19,0,0,1-2-1.15c-10.06-7.67-13.73-19.36-9.81-31.47,1.21-3.73,2.68-7.37,4.19-11.47l-5.79-2-.09-.48c3.68-.55,7.34-1.33,11-1.62,13.9-1.07,27.8-2.43,41.72-2.77,7.11-.17,14.27,1.51,21.37,2.54,1.81.27,3.51,1.28,5.27,1.95l-.1,1.08-20.16.67c.47,3.6.83,6.79,1.31,10,1.77,11.67-3.35,20.5-11.5,28.08-1.65,1.54-3.47,2.88-5.14,4.39-.95.87-1.75,1.9-3.09,3.38h144.3c-1.52-1.87-2.45-3.25-3.6-4.41-9.25-9.35-10.57-20.17-7-32.46,2.35-8.11,7.24-12.44,15.24-14.33,10.38-2.44,20.9-3,31.49-3.29,1.19,0,2.38-.18,4-.31C434.4,329.14,425.1,323.67,417,317.1c12.61-4.53,29,11.68,30.46,30l-4.43,3.6c6,19.16-1.78,33.41-17.55,44.62l.65,1H471.3v1c-12.18,1.17-24.35,2.7-36.56,3.44-14.82.89-29.68,1.21-44.52,1.6q-16.37.42-32.75.34-27.69-.16-55.37-.69c-17.55-.33-35.11-.64-52.64-1.39-18.43-.78-36.84-2.08-55.26-3.18a30.65,30.65,0,0,1-3.51-.6Zm211.67-45.57c-1.91,3.17-3.81,6-5.36,8.95-3.47,6.67-3.1,13.5,0,20.15a14.3,14.3,0,0,0,9.9,8c8.61,2.22,19.24-2.37,24.45-10.59,5.11-8,4.35-19.3-1.9-26.94H421c0,1.58-.06,2.88,0,4.18.31,5,.9,10.08,1,15.12.05,4.27-4.91,7.77-9.09,6.67A12.28,12.28,0,0,1,410,374l.16-.75,7.35-2.14c1.44-7-.52-16.93-4-20.89Zm-144,.18-.57-1c-6.61,0-13.23-.23-19.82.06-7.66.33-12.52,4.73-14.69,11.87a27.69,27.69,0,0,0-1.18,9.61c.66,9.7,8.57,17.16,17.37,16.86,14.2-.47,25.64-15,22.74-28.94-.06-.27-.43-.48-.94-1a17.68,17.68,0,0,0-3.38,2.54,81.45,81.45,0,0,0-6.18,8.41c-3,4.8-8.66,7.81-17,4.31A12.85,12.85,0,0,1,235.3,361c.8,1.62,1.15,3.35,1.82,5s1.68,3.19,2.76,5.19C249.63,366.61,253.82,358.35,258.42,350.44Z"/><path class="cls-3" d="M247.28,290.71c-3.34,9.37.37,16.05,9.5,17.24a96.09,96.09,0,0,0,13.48.31c9.14-.1,18.25-.07,27.08,2.76,1.39.45,2.75,1,4.12,1.52a9,9,0,0,1,.88.44l-.27,1h-22l-.36,1c.85.94,1.65,1.93,2.57,2.79,5.21,4.84,9.56,10.23,10.83,17.47.46,2.61.5,5.31.73,8l-.71.24a11.44,11.44,0,0,1-1.29-1.6c-1.33-2.36-2.52-4.79-3.88-7.12-6-10.26-15.22-15.73-26.77-17.33-6.92-1-13.35,1.23-19.59,4-9.34,4.17-17.31,10.47-25.55,16.36a37,37,0,0,1-5.79,3.57c1.51-3.51,4.44-5.86,7-8.49s5.33-5.52,8.19-8.06a98.43,98.43,0,0,1,8.71-6.9c3.12-2.19,6.45-4.07,10.24-6.44-3.88-5.32-4.81-11.47-5.42-18l-28.57-3.18c1.23-16.76,2.57-33.1,6.32-49.14l1.15.09c-.84,13.68-1.69,27.36-2.55,41.37a28.18,28.18,0,0,0,3.92.68q29.88.44,59.76.79c.78,0,1.55-.12,2.87-.23l-3.9-5.88a7.55,7.55,0,0,1,1.81-.69c12.41-.59,24.53.52,35.83,6.25,7.12,3.6,12,9.06,13.8,16.95a101.83,101.83,0,0,1,.25,46.17A62.81,62.81,0,0,1,327,354l-.84-.15c-.27-4.3-.41-8.61-.83-12.9q-1.55-15.6-3.31-31.18a22.87,22.87,0,0,0-1.09-4.25c-3.08-9.64-8.56-14.22-18.67-14.77-7.85-.42-15.73-.22-23.59-.22-9.12,0-18.24.09-27.36.13Z"/><path class="cls-3" d="M388.8,257.69a46.25,46.25,0,0,1,3.05,4.37c5.29,9.67,10.5,19.39,15.75,29.09,1.6,3,3.28,5.91,4.82,8.91a10.82,10.82,0,0,1-1.11,12.39c-13.64,17.19-27.25,34.42-41.18,51.38-7,8.56-16.65,12.55-27.68,12.67-14.06.17-28.12,0-42.19,0l-.09-.85c3-.38,6-1,9.07-1.1,7.65-.33,15.31-.78,22.95-.6,16.13.38,28.78-6.27,38.68-18.55q15.25-18.93,30.1-38.18a74.68,74.68,0,0,0,5.56-9.24,5.94,5.94,0,0,0,.07-6.13q-9.53-17.29-19-34.61a15.91,15.91,0,0,0-1.66-2.1c-3.72.64-6.29,2.83-7.21,6.06a60.62,60.62,0,0,0-2.5,13.84c-.38,9-.33,18-.08,27,.66,24.46-22.58,50.82-48.54,51.67-7.64.25-15.29.4-22.93.56a5.8,5.8,0,0,1-2.61-.62c3.6-1.93,7.58-2.13,11.48-2.7,6.79-1,13.69-1.52,20.3-3.22,13.51-3.48,22.69-12.74,30.18-24a40.29,40.29,0,0,0,6.54-22c.13-7.31-.36-14.63-.39-21.94a113.73,113.73,0,0,1,.59-12.79C371.89,266.44,378.14,259.71,388.8,257.69Z"/><path class="cls-3" d="M361.28,248.64c4.6-.92,8.28,0,12,.92,3.26.82,6.54,1.56,9.85,2.14a19.12,19.12,0,0,0,4.08-.17c-.68-7.82-1.33-15.34-2-23.46-4,2.35-7.82,4.48-11.53,6.71-3.15,1.89-6.34,3.42-10.15,2.22,0-.17-.06-.5,0-.57,5.79-4.07,11.54-8.2,17.43-12.12a21.6,21.6,0,0,1,5.82-2.59c4.13-1.23,7.22,0,9,3.83a32.57,32.57,0,0,1,1.59,23c-1.52,5.2-6.07,8.11-12.37,8a43.09,43.09,0,0,1-21.77-6.29A16.3,16.3,0,0,1,361.28,248.64Z"/><path class="cls-3" d="M324.5,178.24c-2-8.72-7.71-12.75-15.68-11.34-3.53.62-7,1.78-10.43,2.69a7.64,7.64,0,0,1-2.88.35c6.53-5.84,13.66-10.34,22.89-8.64,5.31,1,8.83,4.76,11.28,9.42,2.21,4.21,2.21,8.81,2.25,13.79-2.36.24-4.44.49-6.52.66-1.68.14-3.37.16-5.05.27-4.67.31-8.14,1.92-9.29,7.1a22.37,22.37,0,0,1-3.24,6.62c-3,4.79-7.55,6-12.57,3.2-3.81-2.1-5.53-5.58-6.08-10.52,1.43.91,2.37,1.43,3.24,2.06,1.18.85,2.26,1.86,3.47,2.66,4.35,2.9,6.86,2.25,9.21-2.37.76-1.5,1.33-3.1,2.08-4.61,2.51-5.12,6.27-8.67,12.09-9.74A48.21,48.21,0,0,0,324.5,178.24Z"/><path class="cls-3" d="M299.79,212.69c1,1.59,2,3.18,3,4.79,1.74,2.89,3.34,5.87,5.2,8.68a31.79,31.79,0,0,0,17.76,13.24q8.72,2.65,17.41,5.38c1.16.37,2.27.9,4.11,1.65a19.07,19.07,0,0,1-2.7.66c-9,.57-18,1.45-26.85-.81-9.66-2.46-16.12-8.61-20-17.62a17.17,17.17,0,0,1-.67-12.53,25.66,25.66,0,0,1,1.77-3.46Z"/><path class="cls-3" d="M229.07,262.12q-4.68-14.34-9.33-28.68c-.46-1.42-.81-2.87-1.13-4.32a4.38,4.38,0,0,1,1.43-4.41c.8-.72,1.71-1.31,2.58-2,.17-.13.35-.26.54-.38a3.68,3.68,0,0,0,1.6-4.31,53.85,53.85,0,0,0-2.53-7.87c-.91-2.32-1.89-4.6-2.83-6.9a2.76,2.76,0,0,1,1.07-3.44,9.41,9.41,0,0,1,5.44-1.83,2.12,2.12,0,0,1,.65.09,1,1,0,0,1,.54,1.82,5.51,5.51,0,0,1-2.81,1.52c-.14,0-.33-.09-.49-.14a1.5,1.5,0,0,1,.32-.38c.33-.18.68-.3,1-.48a1.47,1.47,0,0,0,.55-.42,1.15,1.15,0,0,0,.21-.77c0-.16-.44-.32-.66-.3a4.68,4.68,0,0,0-3.35,1.57,1.65,1.65,0,0,0-.37,1.65c.47,1.58.93,3.15,1.45,4.71,1.15,3.41,2.36,6.81,3.5,10.23a13.39,13.39,0,0,1,.45,2.18,3.52,3.52,0,0,1-.94,3c-.76.85-1.6,1.64-2.38,2.48a22.34,22.34,0,0,0-1.73,2.05,2.88,2.88,0,0,0-.36,2.71c1.27,3.66,2.52,7.33,3.79,11q1.38,3.93,2.8,7.85c1.08,3,2.18,6,3.27,9,.8,2.16,1.58,4.32,2.4,6.47s1.69,4.32,2.55,6.47a3.63,3.63,0,0,0,2.44,2.12,10.21,10.21,0,0,0,5.06.2c1.45-.25,2.87-.64,4.31-1a2,2,0,0,1,.6-.06c.16,0,.44.12.45.2a.65.65,0,0,1-.2.51,2.38,2.38,0,0,1-.77.48,32.85,32.85,0,0,1-10,2.16,10.31,10.31,0,0,1-1.11-.05,4.91,4.91,0,0,1-4.7-3.65c-1-3.07-2.12-6.1-3.19-9.15Z"/><path class="cls-3" d="M256.36,262.53c1.14,4,2.39,7.87,3.31,11.86,1.05-.09,2.18-.22,3.32-.28.72,0,1.45.05,2.17.08a1,1,0,0,1,.35,0c.37.12.76.29.67.75s-.53.45-.9.36a14.07,14.07,0,0,0-5.17-.33.77.77,0,0,0-.79.6,5.23,5.23,0,0,1-2.24,2.73,7.84,7.84,0,0,1-5.1,1.5c-.94-.07-1.23-.79-.64-1.54a6.42,6.42,0,0,1,2.5-1.77c1.2-.54,2.43-1,3.66-1.48.43-.16.49-.37.39-.75-.24-.9-.45-1.81-.71-2.7-.78-2.61-1.58-5.22-2.37-7.83-.07-.22-.16-.44-.21-.59-1.18.13-2.29.34-3.41.36a8.92,8.92,0,0,1-8.87-5.48,19.69,19.69,0,0,1-1.64-10.73,5.73,5.73,0,0,1,2.7-4.06,18.75,18.75,0,0,1,7-2.86,31.11,31.11,0,0,1,4.3-.6,4.51,4.51,0,0,1,1.88.31,1.23,1.23,0,0,1,.5,2.2,8,8,0,0,1-2,1.4,20.75,20.75,0,0,1-8.17,2.4,7.82,7.82,0,0,1-1.37-.06c-.35,0-.79-.14-.8-.55a1.22,1.22,0,0,1,.4-.9,11.32,11.32,0,0,1,1.87-1.1,14.57,14.57,0,0,1,1.72-.6,2.83,2.83,0,0,1,.5,0l0,.17-.45.2c-.62.28-1.25.52-1.83.85-.23.13-.53.54-.46.67a1.05,1.05,0,0,0,.72.57,7.14,7.14,0,0,0,2-.07,13.61,13.61,0,0,0,5.5-2.21,4.82,4.82,0,0,0,1.08-1.13c.38-.55.23-1.06-.41-1.23a7.12,7.12,0,0,0-2.33-.31,17.77,17.77,0,0,0-8.35,2.73,5.62,5.62,0,0,0-2.8,4.67,16.62,16.62,0,0,0,1.88,9.26,8,8,0,0,0,6.85,4.24,11,11,0,0,0,10.14-4.38,8.93,8.93,0,0,0,1.59-3.81,1.59,1.59,0,0,1,.27-.47c.08.16.23.33.24.49a9.9,9.9,0,0,1-2,5.9,9.69,9.69,0,0,1-4.06,3.27Zm1.57,12.94a22.49,22.49,0,0,0-2.5,1,7.22,7.22,0,0,0-1.84,1.35c-.46.47-.14,1,.54,1a4,4,0,0,0,2.89-1.26A3.14,3.14,0,0,0,257.93,275.47Z"/></svg>